<svg version="1.1" id="Layer_1" xmlns="http://www.w3.org/2000/svg" xmlns:xlink="http://www.w3.org/1999/xlink" x="0px" y="0px"
	 width="100%" viewBox="0 0 254 225" enable-background="new 0 0 254 225" xml:space="preserve">
<path fill="#FCFDFD" opacity="1.000000" stroke="none" 
	d="
M1.000000,88.000000 
	C1.000000,58.666672 1.000000,29.833344 1.000000,1.000012 
	C85.666649,1.000008 170.333298,1.000008 254.999954,1.000004 
	C254.999969,75.999962 254.999969,150.999924 254.999985,225.999908 
	C170.333389,225.999939 85.666763,225.999939 1.000073,225.999969 
	C1.000000,180.166672 1.000000,134.333328 1.000000,88.000000 
M188.222534,78.854553 
	C188.222534,78.854553 188.296936,78.759384 188.196533,78.324409 
	C188.196533,78.324409 187.878128,78.011520 187.571106,77.328041 
	C184.517761,75.243713 181.574814,74.578354 178.428207,78.411705 
	C177.286270,78.936150 176.144318,79.460594 174.114761,79.812279 
	C171.406769,79.860970 168.698792,79.909660 165.586594,79.765114 
	C165.586594,79.765114 165.147964,79.673950 165.119949,78.806572 
	C165.053970,75.871124 164.987991,72.935669 165.126053,69.552498 
	C165.126053,69.552498 165.202469,69.065720 166.052429,69.027580 
	C169.442429,68.995735 172.635849,68.521614 175.467102,71.799805 
	C176.495438,72.990471 180.917603,72.554367 182.839935,71.346458 
	C185.382690,69.748695 185.596558,66.489372 183.453751,63.874603 
	C181.245834,61.180428 177.902878,60.299786 175.590607,62.682854 
	C172.361404,66.010948 169.001526,65.811409 165.186829,64.544205 
	C165.114136,64.391258 165.041443,64.238319 165.057220,63.220604 
	C165.076294,61.199566 165.095383,59.178528 166.030014,57.096024 
	C176.669403,57.087009 187.308807,57.077995 198.531754,57.545734 
	C218.585205,60.321693 223.784393,82.165573 214.364777,95.443382 
	C210.539886,100.834908 205.033340,103.296623 198.016449,104.833717 
	C188.779343,104.833717 179.542236,104.833717 170.266754,104.833717 
	C170.266754,114.560326 170.266754,123.706825 170.266754,132.846069 
	C178.382339,132.846069 186.156403,132.846069 194.780853,133.014648 
	C197.258636,132.733017 199.736053,132.448074 202.214264,132.170258 
	C223.817261,129.748306 238.583969,118.133690 245.543655,97.817711 
	C252.872513,76.424103 247.137299,44.161522 216.896317,33.581001 
	C209.270508,30.912924 201.623993,30.503023 193.042542,29.020058 
	C174.026855,29.069630 155.011154,29.119202 135.118439,29.312365 
	C135.073502,43.198536 135.028564,57.084709 134.435867,71.496933 
	C132.960754,71.814331 131.485641,72.131721 130.010529,72.449120 
	C129.936386,72.841675 129.862244,73.234238 129.788101,73.626793 
	C131.427460,74.146492 133.066803,74.666183 134.767670,75.919998 
	C134.730194,77.145042 134.692703,78.370087 133.782394,79.663979 
	C128.819412,79.399200 123.812630,80.969322 119.378868,76.317352 
	C116.559540,73.359261 111.295441,75.934837 111.017563,79.763939 
	C110.894005,81.466446 111.655945,83.233223 111.917801,85.623451 
	C110.936440,86.643738 109.955078,87.664024 108.379402,89.151604 
	C105.250267,91.932579 104.637131,95.194633 107.595428,98.224709 
	C110.671936,101.375885 113.763809,100.357773 116.595093,97.327728 
	C117.378059,96.489777 118.869499,96.313820 120.889771,95.993484 
	C122.909836,95.926300 124.929901,95.859123 127.714188,95.942513 
	C128.488190,95.893562 129.262177,95.844612 130.755936,95.974655 
	C131.490540,95.918480 132.225143,95.862305 133.570984,95.990227 
	C133.991440,96.043770 134.411896,96.097313 134.828781,97.060524 
	C134.908020,118.042290 134.987274,139.024063 134.875702,160.925308 
	C134.875702,170.195328 134.875702,179.465347 134.875702,188.756058 
	C145.195221,188.756058 155.060776,188.756058 164.927032,188.756058 
	C164.927032,155.965530 164.927032,123.513535 165.118851,90.288063 
	C164.762161,89.127182 164.405457,87.966309 164.305023,86.219780 
	C164.492950,85.459152 164.680878,84.698524 165.159897,83.507362 
	C165.444305,83.314110 165.728714,83.120857 166.900177,83.078720 
	C169.595062,83.028717 172.289948,82.978714 175.667892,83.065163 
	C177.246124,84.108551 178.824371,85.151932 180.961639,86.808167 
	C182.716827,86.626701 184.472015,86.445244 186.078873,86.296562 
	C186.078873,86.296562 186.229065,86.319336 186.839432,86.151398 
	C187.329910,85.504814 187.820389,84.858223 188.226746,84.006462 
	C188.226746,84.006462 188.267654,84.224403 188.872116,83.754379 
	C188.893936,82.497765 188.915771,81.241150 188.950073,79.435791 
	C188.688583,79.206528 188.427078,78.977264 188.222534,78.854553 
M92.042084,130.696350 
	C92.360054,130.778793 92.678017,130.861237 93.472229,131.417679 
	C95.767654,133.373001 98.063087,135.328323 100.801720,137.751343 
	C102.144676,141.157516 103.487640,144.563705 104.777321,148.665115 
	C104.559875,149.775024 104.342430,150.884933 103.943710,152.557999 
	C103.930122,152.950104 103.916527,153.342209 103.350830,154.154739 
	C102.787300,155.403992 102.223770,156.653244 101.082436,158.211075 
	C98.152718,160.145554 95.466934,162.880753 92.246750,163.861771 
	C83.216591,166.612778 74.060837,169.118500 64.442818,165.941605 
	C58.357574,163.931625 51.613659,163.401917 46.027618,160.530472 
	C39.696739,157.276154 34.329559,152.147049 27.968010,147.404083 
	C23.187582,154.802521 18.334232,162.313828 13.425741,169.910461 
	C35.418049,188.981567 60.454113,194.365356 88.053169,191.225540 
	C116.949776,187.938080 135.924286,165.092194 131.077118,135.321838 
	C129.157471,123.531677 123.000488,114.496078 112.994812,108.347168 
	C106.649925,104.447975 99.734413,101.477310 92.602394,97.836227 
	C92.369743,97.571701 92.137085,97.307175 92.072021,96.168503 
	C92.104240,93.533356 92.136459,90.898216 92.855965,88.015427 
	C97.409340,84.096504 97.508865,81.558159 93.200310,77.949234 
	C93.200310,77.949234 93.217102,77.840591 92.691864,77.256577 
	C89.125656,76.107513 86.347893,77.226028 85.132812,80.694046 
	C83.912033,84.178322 85.575790,86.725533 88.894936,89.082970 
	C88.867828,91.386543 88.840721,93.690125 88.056122,95.948166 
	C87.046379,95.928268 86.036644,95.908371 84.816666,95.309479 
	C82.091431,94.431396 79.366196,93.553314 76.497101,91.975555 
	C76.260612,87.925819 75.345535,84.006012 79.222038,80.588577 
	C81.783936,78.330070 81.056839,74.512962 78.211060,72.825470 
	C76.402573,71.753067 72.930252,71.758186 71.111931,72.826042 
	C68.209572,74.530510 67.609451,78.353622 70.178894,80.576424 
	C73.809944,83.717621 72.930618,87.300568 72.100990,90.977409 
	C63.019844,89.607758 55.556938,84.221031 47.115627,80.250877 
	C46.679474,79.836861 46.243317,79.422852 45.202789,78.551704 
	C44.779503,76.813759 44.536575,75.006584 43.900829,73.350182 
	C41.507874,67.115448 42.274765,60.674183 47.732552,57.215694 
	C52.965900,53.899429 59.219612,50.653385 65.185600,50.328629 
	C81.585358,49.435925 96.527916,54.215542 108.734467,66.617737 
	C113.454865,59.190746 118.132812,51.995728 122.542694,44.639992 
	C122.990120,43.893677 122.209045,41.533100 121.344231,41.016773 
	C114.460274,36.906818 107.731026,32.257984 100.330315,29.377836 
	C93.880852,26.867895 86.672447,25.814873 79.705757,25.226149 
	C63.370407,23.845720 47.379040,25.598070 33.425968,35.114891 
	C11.568728,50.022831 10.822486,81.727348 23.745155,98.292587 
	C32.882820,110.005920 45.897141,115.405930 60.283451,119.542892 
	C61.145382,119.692772 62.007317,119.842644 63.550331,120.297615 
	C65.701195,120.858551 67.852058,121.419487 70.514923,122.338470 
	C71.278778,122.591629 72.042641,122.844780 72.861588,123.557472 
	C72.861588,123.557472 73.034325,123.986862 72.931168,124.728523 
	C71.938911,126.129875 70.870537,127.484238 69.970451,128.942474 
	C68.167847,131.862946 68.201523,135.184906 71.106010,136.772812 
	C73.038460,137.829315 77.388687,137.795517 78.334709,136.523209 
	C79.668236,134.729752 79.116531,131.308716 78.817078,128.645844 
	C78.708061,127.676437 77.010834,126.885643 76.224106,125.170189 
	C76.236313,124.882645 76.248520,124.595093 76.997444,124.512550 
	C79.771217,125.394814 82.544991,126.277077 85.748199,127.703751 
	C86.800415,128.127151 87.852631,128.550552 89.285294,129.336929 
	C89.448090,129.401871 89.610886,129.466827 90.082497,129.880539 
	C90.082497,129.880539 90.514969,130.053528 90.514969,130.053528 
	C90.514969,130.053528 90.976646,129.991898 91.345802,130.222519 
	C91.345802,130.222519 91.780167,130.250793 92.042084,130.696350 
M57.310398,56.852097 
	C56.706867,57.169163 56.103336,57.486229 55.229885,57.740082 
	C55.229885,57.740082 55.010235,57.909222 54.356354,57.942783 
	C54.036991,58.223759 53.717628,58.504734 52.732185,58.851704 
	C48.581020,61.270676 46.277271,64.832077 47.351830,69.629196 
	C48.754597,75.891533 53.608486,78.844337 59.501530,81.481422 
	C56.542431,70.250931 59.930969,65.583229 71.140259,65.369362 
	C76.761269,65.262108 82.421333,66.083466 88.029663,66.765137 
	C92.970467,67.365662 97.863869,68.356041 102.778206,69.174255 
	C103.003479,68.657883 103.228760,68.141510 103.454041,67.625137 
	C100.697617,65.724388 97.941185,63.823650 94.724930,61.406853 
	C92.811508,60.577477 90.898087,59.748104 88.757164,58.752567 
	C88.757164,58.752567 88.483360,58.818859 87.954865,58.253155 
	C82.626434,57.390190 77.298012,56.527229 71.173645,55.400997 
	C69.793365,55.485371 68.413078,55.569748 66.279274,55.382206 
	C63.977398,55.838039 61.675518,56.293873 58.916946,56.590305 
	C58.584393,56.603222 58.283398,56.707340 57.310398,56.852097 
M193.039307,90.828278 
	C185.448822,90.828278 177.858353,90.828278 170.216736,90.828278 
	C170.216736,94.296478 170.216736,97.134872 170.216736,99.840225 
	C179.751556,99.840225 188.859238,99.840225 198.708206,99.877449 
	C210.915848,97.673141 216.109604,87.480133 213.745712,76.502174 
	C211.839844,67.651237 204.858307,59.523884 188.512604,63.443459 
	C187.680405,68.995872 190.354782,71.152824 195.633087,72.206665 
	C200.362503,73.150909 203.207092,78.937218 201.134659,83.297180 
	C199.716614,86.280449 196.426437,88.373833 193.039307,90.828278 
M44.283016,147.347488 
	C41.359398,146.452896 38.435780,145.558304 34.810249,144.448944 
	C35.428005,145.760300 35.539192,146.259064 35.836842,146.590271 
	C47.924637,160.041153 73.764610,166.337173 90.725807,159.983749 
	C101.388733,155.989563 103.381477,145.484299 94.735229,138.070969 
	C92.336655,136.014420 89.398758,134.586884 86.708290,132.870743 
	C86.452652,134.714172 86.997322,135.679855 87.405403,136.700165 
	C90.287643,143.906448 87.571678,149.267288 80.042580,150.987732 
	C77.792542,151.501862 75.445274,151.685333 73.131294,151.808228 
	C63.492432,152.320129 54.258114,150.016251 44.283016,147.347488 
z"/>
<path fill="#130C49" opacity="1.000000" stroke="none" 
	d="
M193.966904,29.153675 
	C201.623993,30.503023 209.270508,30.912924 216.896317,33.581001 
	C247.137299,44.161522 252.872513,76.424103 245.543655,97.817711 
	C238.583969,118.133690 223.817261,129.748306 202.214264,132.170258 
	C199.736053,132.448074 197.258636,132.733017 194.044373,132.665619 
	C186.063812,132.316605 178.819733,132.316605 171.470917,132.316605 
	C171.470917,122.982986 171.470917,114.648857 171.470917,106.007332 
	C179.073486,106.007332 186.212326,106.082474 193.347610,105.956436 
	C195.218262,105.923401 197.077896,105.266197 198.942581,104.895630 
	C205.033340,103.296623 210.539886,100.834908 214.364777,95.443382 
	C223.784393,82.165573 218.585205,60.321693 197.966736,56.995445 
	C187.146957,56.320194 176.892288,56.179527 166.637146,56.117264 
	C166.131714,56.114193 165.622116,56.795086 165.114471,57.157490 
	C165.095383,59.178528 165.076294,61.199566 164.656586,63.872089 
	C158.723816,64.945641 153.191696,65.367706 147.308624,65.792175 
	C143.595428,68.125191 141.294922,72.771988 135.975983,70.372269 
	C136.008255,56.628838 136.038422,43.342651 136.532654,30.039669 
	C154.243103,30.018660 171.489563,30.038868 188.735718,29.972834 
	C190.480469,29.966154 192.223221,29.439192 193.966904,29.153675 
z"/>
<path fill="#120C49" opacity="1.000000" stroke="none" 
	d="
M47.237213,80.961250 
	C55.556938,84.221031 63.019844,89.607758 72.452484,91.046524 
	C72.803986,91.115631 72.881821,91.186760 72.886917,91.393204 
	C72.892006,91.599655 72.798454,92.003212 72.547989,92.331902 
	C72.198387,100.539154 72.221703,108.422539 71.912254,116.292831 
	C71.836845,118.210754 70.668655,120.085709 70.002922,121.980423 
	C67.852058,121.419487 65.701195,120.858551 63.208424,119.700478 
	C63.216652,115.151497 62.012379,110.976646 66.030197,107.701981 
	C66.967644,106.937935 66.230316,102.276711 64.821312,100.998787 
	C63.436947,99.743225 59.197433,99.494690 58.057262,100.640915 
	C56.557674,102.148483 55.622341,106.860619 56.612541,107.732567 
	C60.397995,111.065926 59.623611,115.079231 59.797123,119.070389 
	C45.897141,115.405930 32.882820,110.005920 23.745155,98.292587 
	C10.822486,81.727348 11.568728,50.022831 33.425968,35.114891 
	C47.379040,25.598070 63.370407,23.845720 79.705757,25.226149 
	C86.672447,25.814873 93.880852,26.867895 100.330315,29.377836 
	C107.731026,32.257984 114.460274,36.906818 121.344231,41.016773 
	C122.209045,41.533100 122.990120,43.893677 122.542694,44.639992 
	C118.132812,51.995728 113.454865,59.190746 108.734467,66.617737 
	C96.527916,54.215542 81.585358,49.435925 65.185600,50.328629 
	C59.219612,50.653385 52.965900,53.899429 47.732552,57.215694 
	C42.274765,60.674183 41.507874,67.115448 43.900829,73.350182 
	C44.536575,75.006584 44.779503,76.813759 45.582317,79.241066 
	C45.949657,84.579468 45.937466,89.228516 45.675919,93.965790 
	C45.213226,94.319420 44.999889,94.584824 44.792141,94.820984 
	C44.797733,94.791756 44.739056,94.801758 44.389561,94.877792 
	C39.320923,99.164726 39.583698,101.297798 45.408131,106.608414 
	C48.795700,105.526283 52.468575,104.603783 52.125252,99.983009 
	C51.895374,96.889061 50.897583,94.123848 47.038841,93.402206 
	C47.085415,88.952705 47.161312,84.956978 47.237213,80.961250 
z"/>
<path fill="#120C48" opacity="1.000000" stroke="none" 
	d="
M103.902939,153.734314 
	C103.916527,153.342209 103.930122,152.950104 104.398376,152.198135 
	C105.568840,149.734299 106.858360,147.641953 106.901344,145.524323 
	C107.089844,136.238434 106.917580,126.945229 107.075150,117.380707 
	C110.569695,113.108849 110.614639,110.067390 107.411774,107.795647 
	C104.631042,105.823311 100.439850,106.884125 97.881409,109.963074 
	C96.020058,109.539619 94.515915,109.270508 93.007385,108.545074 
	C92.991562,105.030609 92.980118,101.972473 92.993706,98.708115 
	C93.018738,98.501892 93.074814,98.090225 93.074814,98.090225 
	C99.734413,101.477310 106.649925,104.447975 112.994812,108.347168 
	C123.000488,114.496078 129.157471,123.531677 131.077118,135.321838 
	C135.924286,165.092194 116.949776,187.938080 88.053169,191.225540 
	C60.454113,194.365356 35.418049,188.981567 13.425741,169.910461 
	C18.334232,162.313828 23.187582,154.802521 27.968010,147.404083 
	C34.329559,152.147049 39.696739,157.276154 46.027618,160.530472 
	C51.613659,163.401917 58.357574,163.931625 64.442818,165.941605 
	C74.060837,169.118500 83.216591,166.612778 92.246750,163.861771 
	C95.466934,162.880753 98.152718,160.145554 101.731918,157.945709 
	C102.888588,156.365005 103.395767,155.049667 103.902939,153.734314 
z"/>
<path fill="#05CDD3" opacity="1.000000" stroke="none" 
	d="
M193.973206,90.865044 
	C196.426437,88.373833 199.716614,86.280449 201.134659,83.297180 
	C203.207092,78.937218 200.362503,73.150909 195.633087,72.206665 
	C190.354782,71.152824 187.680405,68.995872 188.512604,63.443459 
	C204.858307,59.523884 211.839844,67.651237 213.745712,76.502174 
	C216.109604,87.480133 210.915848,97.673141 198.021194,99.595444 
	C189.868652,99.208733 182.403061,99.031189 174.937653,99.039299 
	C172.364883,99.042099 170.925766,98.538193 170.926529,95.503716 
	C170.927277,92.479729 172.356125,92.024467 174.926971,91.940971 
	C181.280670,91.734627 187.625061,91.242386 193.973206,90.865044 
z"/>
<path fill="#07CCD2" opacity="1.000000" stroke="none" 
	d="
M44.662525,147.489014 
	C54.258114,150.016251 63.492432,152.320129 73.131294,151.808228 
	C75.445274,151.685333 77.792542,151.501862 80.042580,150.987732 
	C87.571678,149.267288 90.287643,143.906448 87.405403,136.700165 
	C86.997322,135.679855 86.452652,134.714172 86.708290,132.870743 
	C89.398758,134.586884 92.336655,136.014420 94.735229,138.070969 
	C103.381477,145.484299 101.388733,155.989563 90.725807,159.983749 
	C73.764610,166.337173 47.924637,160.041153 35.836842,146.590271 
	C35.539192,146.259064 35.428005,145.760300 34.810249,144.448944 
	C38.435780,145.558304 41.359398,146.452896 44.662525,147.489014 
z"/>
<path fill="#08CBD1" opacity="1.000000" stroke="none" 
	d="
M55.010239,57.909225 
	C55.010235,57.909222 55.229885,57.740082 55.727394,57.810417 
	C56.821255,57.554722 57.417606,57.228691 58.013958,56.902660 
	C58.283398,56.707340 58.584393,56.603222 59.600304,56.732857 
	C62.533375,56.468315 64.783089,56.061218 67.032799,55.654121 
	C68.413078,55.569748 69.793365,55.485371 71.748253,55.844818 
	C77.709694,57.132046 83.096527,57.975452 88.483360,58.818859 
	C88.483360,58.818859 88.757164,58.752567 89.067017,59.121212 
	C91.312836,60.300873 93.248802,61.111889 95.184761,61.922905 
	C97.941185,63.823650 100.697617,65.724388 103.454041,67.625137 
	C103.228760,68.141510 103.003479,68.657883 102.778206,69.174255 
	C97.863869,68.356041 92.970467,67.365662 88.029663,66.765137 
	C82.421333,66.083466 76.761269,65.262108 71.140259,65.369362 
	C59.930969,65.583229 56.542431,70.250931 59.501530,81.481422 
	C53.608486,78.844337 48.754597,75.891533 47.351830,69.629196 
	C46.277271,64.832077 48.581020,61.270676 53.392899,58.798134 
	C54.372482,58.466114 54.691360,58.187672 55.010239,57.909225 
z"/>
<path fill="#110C4A" opacity="1.000000" stroke="none" 
	d="
M85.318764,127.159340 
	C82.544991,126.277077 79.771217,125.394814 76.569160,124.184715 
	C76.011574,123.573242 75.906113,123.280991 75.900070,122.517487 
	C76.000504,112.371979 76.025383,102.689110 76.218277,92.959793 
	C76.386292,92.913345 76.640961,92.675232 76.640961,92.675232 
	C79.366196,93.553314 82.091431,94.431396 85.145859,95.909683 
	C86.317062,97.881409 87.842926,99.231270 87.887146,100.628036 
	C88.126595,108.191376 88.125267,115.770424 87.878357,123.333336 
	C87.835861,124.635139 86.212090,125.885315 85.318764,127.159340 
z"/>
<path fill="#0F134E" opacity="1.000000" stroke="none" 
	d="
M164.922012,70.000221 
	C164.987991,72.935669 165.053970,75.871124 165.060425,79.289810 
	C165.000885,79.773056 164.991959,79.949463 164.523087,79.964737 
	C154.368851,79.964050 144.683487,79.948090 134.959717,79.799736 
	C134.921310,79.667336 134.655228,79.595131 134.655228,79.595131 
	C134.692703,78.370087 134.730194,77.145042 135.017731,75.252487 
	C139.497574,72.989845 143.727341,71.394707 148.422318,69.863510 
	C153.928391,69.608833 158.969284,69.290199 164.003265,68.984451 
	C163.996384,68.997322 164.020569,68.983574 164.074036,69.225052 
	C164.301697,69.779366 164.566528,69.957260 164.922012,70.000221 
z"/>
<path fill="#08C2CA" opacity="1.000000" stroke="none" 
	d="
M112.015953,84.970825 
	C111.655945,83.233223 110.894005,81.466446 111.017563,79.763939 
	C111.295441,75.934837 116.559540,73.359261 119.378868,76.317352 
	C123.812630,80.969322 128.819412,79.399200 134.218811,79.629555 
	C134.655228,79.595131 134.921310,79.667336 135.238831,80.115875 
	C143.659988,80.711075 151.763367,80.922157 159.867447,80.952301 
	C161.574341,80.958656 163.283722,80.301102 164.991959,79.949463 
	C164.991959,79.949463 165.000885,79.773056 165.074432,79.723503 
	C165.147964,79.673950 165.586594,79.765114 166.060562,80.152893 
	C169.357147,80.355461 172.179749,80.170250 175.002365,79.985031 
	C176.144318,79.460594 177.286270,78.936150 179.029373,78.205505 
	C180.084183,77.995247 180.537811,77.991196 180.996307,77.994171 
	C181.001144,78.001213 181.014404,78.014343 180.864655,78.348885 
	C180.886795,80.294281 181.058670,81.905144 181.230560,83.515999 
	C183.469345,83.183601 185.708115,82.851212 187.966888,82.515846 
	C188.042557,82.945709 188.155106,83.585052 188.267654,84.224403 
	C188.267654,84.224403 188.226746,84.006462 187.937622,84.148766 
	C187.175369,84.967155 186.702209,85.643250 186.229065,86.319336 
	C186.229065,86.319336 186.078873,86.296562 185.672028,86.196381 
	C183.644318,86.129234 182.023468,86.162277 180.402603,86.195320 
	C178.824371,85.151932 177.246124,84.108551 175.041138,82.728394 
	C171.613983,82.570282 168.813553,82.748947 166.013138,82.927612 
	C165.728714,83.120857 165.444305,83.314110 164.830002,83.725327 
	C164.500107,83.943283 164.131210,83.934204 163.880371,83.575378 
	C154.036682,83.215454 144.443832,83.214363 134.400558,83.160049 
	C128.876221,83.296425 123.666107,81.761284 119.003296,85.788002 
	C117.803894,86.823784 114.404625,85.312180 112.015953,84.970825 
z"/>
<path fill="#13C9CD" opacity="1.000000" stroke="none" 
	d="
M147.957123,69.799561 
	C143.727341,71.394707 139.497574,72.989845 134.986969,74.885429 
	C133.066803,74.666183 131.427460,74.146492 129.788101,73.626793 
	C129.862244,73.234238 129.936386,72.841675 130.010529,72.449120 
	C131.485641,72.131721 132.960754,71.814331 134.961899,71.230347 
	C135.649918,70.919014 135.811905,70.874260 135.973907,70.829506 
	C141.294922,72.771988 143.595428,68.125191 147.799408,65.889885 
	C154.158340,65.674179 159.675552,65.363190 165.192749,65.052200 
	C169.001526,65.811409 172.361404,66.010948 175.590607,62.682854 
	C177.902878,60.299786 181.245834,61.180428 183.453751,63.874603 
	C185.596558,66.489372 185.382690,69.748695 182.839935,71.346458 
	C180.917603,72.554367 176.495438,72.990471 175.467102,71.799805 
	C172.635849,68.521614 169.442429,68.995735 165.332565,69.014191 
	C164.415329,68.995056 164.217941,68.989311 164.020569,68.983574 
	C164.020569,68.983574 163.996384,68.997322 163.706238,68.692055 
	C159.278763,68.258469 155.139053,68.007736 151.005814,68.088341 
	C149.978836,68.108368 148.972778,69.200325 147.957123,69.799561 
z"/>
<path fill="#22B0C4" opacity="1.000000" stroke="none" 
	d="
M98.238617,110.117416 
	C100.439850,106.884125 104.631042,105.823311 107.411774,107.795647 
	C110.614639,110.067390 110.569695,113.108849 106.718857,117.666946 
	C106.023781,120.197662 105.833961,122.166107 105.753036,124.139015 
	C105.427261,132.081894 105.135147,140.026138 104.830597,147.969879 
	C103.487640,144.563705 102.144676,141.157516 100.832840,137.208435 
	C102.177925,129.587814 103.764809,122.553566 99.477478,115.760551 
	C98.510841,114.228958 98.623039,112.016464 98.238617,110.117416 
z"/>
<path fill="#130C4C" opacity="1.000000" stroke="none" 
	d="
M97.881409,109.963074 
	C98.623039,112.016464 98.510841,114.228958 99.477478,115.760551 
	C103.764809,122.553566 102.177925,129.587814 100.611244,136.974594 
	C98.063087,135.328323 95.767654,133.373001 93.235916,130.715759 
	C93.003670,123.009682 93.007721,116.005547 93.011772,109.001404 
	C94.515915,109.270508 96.020058,109.539619 97.881409,109.963074 
z"/>
<path fill="#E8F9F9" opacity="1.000000" stroke="none" 
	d="
M111.966873,85.297134 
	C114.404625,85.312180 117.803894,86.823784 119.003296,85.788002 
	C123.666107,81.761284 128.876221,83.296425 134.409821,83.367096 
	C134.869507,83.627365 135.057419,83.998123 134.962280,84.424026 
	C135.158890,87.344788 135.450623,89.839638 135.350113,92.288475 
	C130.858322,92.421928 126.760002,92.679176 122.658638,92.744530 
	C120.893356,92.772659 118.058495,93.012428 117.539612,92.107132 
	C115.447182,88.456444 112.172264,88.898415 108.973724,88.684311 
	C109.955078,87.664024 110.936440,86.643738 111.966873,85.297134 
z"/>
<path fill="#120A49" opacity="1.000000" stroke="none" 
	d="
M135.742355,92.334496 
	C135.450623,89.839638 135.158890,87.344788 135.427200,84.425240 
	C145.368561,83.978432 154.749893,83.956314 164.131210,83.934204 
	C164.131210,83.934204 164.500107,83.943283 164.684448,83.940590 
	C164.680878,84.698524 164.492950,85.459152 163.738495,86.576248 
	C160.427780,87.242195 157.683578,87.551682 154.620697,87.925507 
	C153.512878,88.909485 152.723755,89.829132 151.617554,90.837280 
	C150.546219,91.348412 149.791962,91.771027 148.627808,92.258675 
	C144.059387,92.327301 139.900864,92.330902 135.742355,92.334496 
z"/>
<path fill="#0CC3C7" opacity="1.000000" stroke="none" 
	d="
M151.934647,90.748772 
	C152.723755,89.829132 153.512878,88.909485 154.722229,88.200279 
	C154.755615,89.604233 154.368759,90.797737 153.658295,92.160378 
	C151.021255,93.218803 148.774261,94.449692 146.378479,94.915665 
	C142.962769,95.580009 139.437958,95.683441 135.675293,96.033829 
	C135.204666,96.077744 135.018509,96.114304 134.832352,96.150864 
	C134.411896,96.097313 133.991440,96.043770 133.073502,95.686050 
	C131.729401,95.519806 130.882797,95.657730 130.036179,95.795662 
	C129.262177,95.844612 128.488190,95.893562 127.053467,95.630371 
	C124.273788,95.490196 122.154831,95.662170 120.035873,95.834137 
	C118.869499,96.313820 117.378059,96.489777 116.595093,97.327728 
	C113.763809,100.357773 110.671936,101.375885 107.595428,98.224709 
	C104.637131,95.194633 105.250267,91.932579 108.676559,88.917953 
	C112.172264,88.898415 115.447182,88.456444 117.539612,92.107132 
	C118.058495,93.012428 120.893356,92.772659 122.658638,92.744530 
	C126.760002,92.679176 130.858322,92.421928 135.350113,92.288475 
	C139.900864,92.330902 144.059387,92.327301 148.834137,92.466309 
	C150.278473,91.988861 151.106552,91.368820 151.934647,90.748772 
M110.137856,91.801353 
	C110.279495,93.401711 110.421135,95.002075 110.562775,96.602440 
	C111.715538,96.059479 112.868294,95.516510 114.021049,94.973541 
	C112.945160,93.792305 111.869270,92.611069 110.137856,91.801353 
z"/>
<path fill="#000001" opacity="1.000000" stroke="none" 
	d="
M164.927032,91.061531 
	C164.927032,123.513535 164.927032,155.965530 164.927032,188.756058 
	C155.060776,188.756058 145.195221,188.756058 134.875702,188.756058 
	C134.875702,179.465347 134.875702,170.195328 135.187073,160.467087 
	C135.498428,160.008865 135.930283,160.016830 135.953339,160.483337 
	C135.976395,169.849487 135.976395,178.749130 135.976395,187.601257 
	C145.776901,187.601257 154.662888,187.601257 163.669281,187.601257 
	C163.805801,186.416443 163.979462,185.610214 163.979950,184.803894 
	C163.997971,155.029633 164.013138,125.255348 163.963715,95.481178 
	C163.961334,94.047684 163.370270,92.615173 163.360825,91.111916 
	C164.087875,91.048264 164.507462,91.054893 164.927032,91.061531 
z"/>
<path fill="#18C6C9" opacity="1.000000" stroke="none" 
	d="
M76.569031,92.325394 
	C76.640961,92.675232 76.386292,92.913345 75.958290,92.958847 
	C75.357010,93.003510 75.183731,93.002678 74.986794,92.703796 
	C74.639320,91.940056 74.315514,91.474380 73.711578,91.036362 
	C73.248245,91.104942 73.065033,91.145851 72.881821,91.186760 
	C72.881821,91.186760 72.803986,91.115631 72.796341,91.063232 
	C72.930618,87.300568 73.809944,83.717621 70.178894,80.576424 
	C67.609451,78.353622 68.209572,74.530510 71.111931,72.826042 
	C72.930252,71.758186 76.402573,71.753067 78.211060,72.825470 
	C81.056839,74.512962 81.783936,78.330070 79.222038,80.588577 
	C75.345535,84.006012 76.260612,87.925819 76.569031,92.325394 
z"/>
<path fill="#21B6C9" opacity="1.000000" stroke="none" 
	d="
M60.040287,119.306641 
	C59.623611,115.079231 60.397995,111.065926 56.612541,107.732567 
	C55.622341,106.860619 56.557674,102.148483 58.057262,100.640915 
	C59.197433,99.494690 63.436947,99.743225 64.821312,100.998787 
	C66.230316,102.276711 66.967644,106.937935 66.030197,107.701981 
	C62.012379,110.976646 63.216652,115.151497 62.867882,119.547928 
	C62.007317,119.842644 61.145382,119.692772 60.040287,119.306641 
z"/>
<path fill="#1EC7CA" opacity="1.000000" stroke="none" 
	d="
M76.038208,126.013359 
	C77.010834,126.885643 78.708061,127.676437 78.817078,128.645844 
	C79.116531,131.308716 79.668236,134.729752 78.334709,136.523209 
	C77.388687,137.795517 73.038460,137.829315 71.106010,136.772812 
	C68.201523,135.184906 68.167847,131.862946 69.970451,128.942474 
	C70.870537,127.484238 71.938911,126.129875 73.238197,124.545319 
	C74.376221,124.912537 75.207214,125.462944 76.038208,126.013359 
z"/>
<path fill="#1BC4C8" opacity="1.000000" stroke="none" 
	d="
M93.254684,77.846130 
	C97.508865,81.558159 97.409340,84.096504 92.429581,87.779160 
	C90.372070,85.074486 89.482185,86.014526 88.868492,88.224586 
	C85.575790,86.725533 83.912033,84.178322 85.132812,80.694046 
	C86.347893,77.226028 89.125656,76.107513 92.633987,77.596268 
	C92.008034,78.029640 91.439972,78.123329 90.871902,78.217010 
	C90.951103,78.445732 91.030296,78.674454 91.109497,78.903168 
	C91.824554,78.550827 92.539619,78.198479 93.254684,77.846130 
M86.582420,82.517044 
	C86.582420,82.517044 86.469475,82.586746 86.582420,82.517044 
M94.522247,82.407722 
	C94.522247,82.407722 94.590202,82.522636 94.522247,82.407722 
z"/>
<path fill="#000003" opacity="1.000000" stroke="none" 
	d="
M198.479523,104.864670 
	C197.077896,105.266197 195.218262,105.923401 193.347610,105.956436 
	C186.212326,106.082474 179.073486,106.007332 171.470917,106.007332 
	C171.470917,114.648857 171.470917,122.982986 171.470917,132.316605 
	C178.819733,132.316605 186.063812,132.316605 193.619171,132.581329 
	C186.156403,132.846069 178.382339,132.846069 170.266754,132.846069 
	C170.266754,123.706825 170.266754,114.560326 170.266754,104.833717 
	C179.542236,104.833717 188.779343,104.833717 198.479523,104.864670 
z"/>
<path fill="#08CBD0" opacity="1.000000" stroke="none" 
	d="
M88.881714,88.653778 
	C89.482185,86.014526 90.372070,85.074486 92.085938,87.902977 
	C92.136459,90.898216 92.104240,93.533356 91.706772,96.905533 
	C91.219894,108.425667 91.098267,119.208786 90.976646,129.991898 
	C90.976646,129.991898 90.514969,130.053528 90.514969,130.053528 
	C90.514969,130.053528 90.082497,129.880539 89.988419,129.199417 
	C89.928299,122.396011 90.074837,116.271591 89.958351,110.152168 
	C89.874641,105.754456 89.439751,101.363426 89.075256,96.725235 
	C88.930527,96.318596 88.872070,96.156151 88.813614,95.993698 
	C88.840721,93.690125 88.867828,91.386543 88.881714,88.653778 
z"/>
<path fill="#00000F" opacity="1.000000" stroke="none" 
	d="
M135.930283,160.016830 
	C135.930283,160.016830 135.498428,160.008865 135.282471,160.007355 
	C134.987274,139.024063 134.908020,118.042290 134.830566,96.605690 
	C135.018509,96.114304 135.204666,96.077744 135.705780,96.238655 
	C136.020737,96.436127 136.097015,96.842789 136.067932,97.320892 
	C136.002655,118.538277 135.966476,139.277557 135.930283,160.016830 
z"/>
<path fill="#03BEC1" opacity="1.000000" stroke="none" 
	d="
M193.506256,90.846664 
	C187.625061,91.242386 181.280670,91.734627 174.926971,91.940971 
	C172.356125,92.024467 170.927277,92.479729 170.926529,95.503716 
	C170.925766,98.538193 172.364883,99.042099 174.937653,99.039299 
	C182.403061,99.031189 189.868652,99.208733 197.650543,99.576828 
	C188.859238,99.840225 179.751556,99.840225 170.216736,99.840225 
	C170.216736,97.134872 170.216736,94.296478 170.216736,90.828278 
	C177.858353,90.828278 185.448822,90.828278 193.506256,90.846664 
z"/>
<path fill="#00002D" opacity="1.000000" stroke="none" 
	d="
M193.504730,29.086866 
	C192.223221,29.439192 190.480469,29.966154 188.735718,29.972834 
	C171.489563,30.038868 154.243103,30.018660 136.506683,29.818073 
	C136.016632,29.613268 135.995468,29.168774 135.995468,29.168774 
	C155.011154,29.119202 174.026855,29.069630 193.504730,29.086866 
z"/>
<path fill="#14C7C9" opacity="1.000000" stroke="none" 
	d="
M180.991455,77.987137 
	C180.537811,77.991196 180.084183,77.995247 179.290131,77.999023 
	C181.574814,74.578354 184.517761,75.243713 187.422104,77.672119 
	C186.816162,78.155022 186.359222,78.293861 185.902283,78.432701 
	C185.943680,78.614807 185.985092,78.796913 186.026505,78.979019 
	C186.783310,78.905807 187.540131,78.832596 188.296936,78.759384 
	C188.296936,78.759384 188.222534,78.854553 188.226135,79.060272 
	C188.465683,79.505501 188.701630,79.745018 188.937592,79.984535 
	C188.915771,81.241150 188.893936,82.497765 188.569885,83.989395 
	C188.155106,83.585052 188.042557,82.945709 187.966888,82.515846 
	C185.708115,82.851212 183.469345,83.183601 181.230560,83.515999 
	C181.058670,81.905144 180.886795,80.294281 181.158997,78.342461 
	C182.104401,77.899521 182.605713,77.797554 183.107025,77.695587 
	C183.018967,77.464455 182.930908,77.233322 182.842850,77.002190 
	C182.225708,77.330505 181.608582,77.658821 180.991455,77.987137 
z"/>
<path fill="#18C1CC" opacity="1.000000" stroke="none" 
	d="
M165.022949,90.674797 
	C164.507462,91.054893 164.087875,91.048264 162.945007,91.054352 
	C159.603607,91.498619 156.985504,91.930161 154.271576,92.268509 
	C154.175766,92.175316 153.981903,91.991241 153.981903,91.991241 
	C154.368759,90.797737 154.755615,89.604233 155.040924,88.135941 
	C157.683578,87.551682 160.427780,87.242195 163.610367,86.869064 
	C164.405457,87.966309 164.762161,89.127182 165.022949,90.674797 
z"/>
<path fill="#00000B" opacity="1.000000" stroke="none" 
	d="
M135.556946,29.240570 
	C135.995468,29.168774 136.016632,29.613268 136.042618,29.834866 
	C136.038422,43.342651 136.008255,56.628838 135.975983,70.372269 
	C135.811905,70.874260 135.649918,70.919014 135.235779,70.967323 
	C135.028564,57.084709 135.073502,43.198536 135.556946,29.240570 
z"/>
<path fill="#060C47" opacity="1.000000" stroke="none" 
	d="
M104.803955,148.317505 
	C105.135147,140.026138 105.427261,132.081894 105.753036,124.139015 
	C105.833961,122.166107 106.023781,120.197662 106.519852,117.940918 
	C106.917580,126.945229 107.089844,136.238434 106.901344,145.524323 
	C106.858360,147.641953 105.568840,149.734299 104.489014,151.916565 
	C104.342430,150.884933 104.559875,149.775024 104.803955,148.317505 
z"/>
<path fill="#0CCCD7" opacity="1.000000" stroke="none" 
	d="
M76.131157,125.591774 
	C75.207214,125.462944 74.376221,124.912537 73.289780,124.174492 
	C73.034325,123.986862 72.861588,123.557472 72.940536,123.059433 
	C73.079498,122.378685 73.139511,122.195984 73.449127,121.682709 
	C73.796387,111.237656 73.894043,101.123177 73.991699,91.008698 
	C74.315514,91.474380 74.639320,91.940056 74.981171,93.172226 
	C74.999992,98.402565 74.895264,102.869568 75.029091,107.329422 
	C75.185730,112.549583 75.550194,117.763504 75.824509,122.980133 
	C75.906113,123.280991 76.011574,123.573242 76.200806,124.082214 
	C76.248520,124.595093 76.236313,124.882645 76.131157,125.591774 
z"/>
<path fill="#00003B" opacity="1.000000" stroke="none" 
	d="
M88.434868,95.970932 
	C88.872070,96.156151 88.930527,96.318596 89.006683,97.194260 
	C88.984543,108.262970 88.944702,118.618462 88.904854,128.973969 
	C87.852631,128.550552 86.800415,128.127151 85.533478,127.431549 
	C86.212090,125.885315 87.835861,124.635139 87.878357,123.333336 
	C88.125267,115.770424 88.126595,108.191376 87.887146,100.628036 
	C87.842926,99.231270 86.317062,97.881409 85.250977,96.199181 
	C86.036644,95.908371 87.046379,95.928268 88.434868,95.970932 
z"/>
<path fill="#00003B" opacity="1.000000" stroke="none" 
	d="
M73.199509,122.013290 
	C73.139511,122.195984 73.079498,122.378685 72.912994,122.829666 
	C72.042641,122.844780 71.278778,122.591629 70.258926,122.159447 
	C70.668655,120.085709 71.836845,118.210754 71.912254,116.292831 
	C72.221703,108.422539 72.198387,100.539154 72.632767,92.794487 
	C73.045189,102.623352 73.122353,112.318321 73.199509,122.013290 
z"/>
<path fill="#2AC1D1" opacity="1.000000" stroke="none" 
	d="
M91.161224,130.107208 
	C91.098267,119.208786 91.219894,108.425667 91.622971,97.342606 
	C92.137085,97.307175 92.369743,97.571701 92.838608,97.963226 
	C93.074814,98.090225 93.018738,98.501892 92.635193,98.954895 
	C92.094490,109.688866 91.937332,119.969826 91.780167,130.250793 
	C91.780167,130.250793 91.345802,130.222519 91.161224,130.107208 
z"/>
<path fill="#000001" opacity="1.000000" stroke="none" 
	d="
M165.572235,57.126755 
	C165.622116,56.795086 166.131714,56.114193 166.637146,56.117264 
	C176.892288,56.179527 187.146957,56.320194 197.674957,56.757065 
	C187.308807,57.077995 176.669403,57.087009 165.572235,57.126755 
z"/>
<path fill="#000040" opacity="1.000000" stroke="none" 
	d="
M91.911125,130.473572 
	C91.937332,119.969826 92.094490,109.688866 92.610161,99.161118 
	C92.980118,101.972473 92.991562,105.030609 93.007385,108.545074 
	C93.007721,116.005547 93.003670,123.009682 92.997803,130.478760 
	C92.678017,130.861237 92.360054,130.778793 91.911125,130.473572 
z"/>
<path fill="#2BBFCF" opacity="1.000000" stroke="none" 
	d="
M89.095078,129.155441 
	C88.944702,118.618462 88.984543,108.262970 89.092957,97.438446 
	C89.439751,101.363426 89.874641,105.754456 89.958351,110.152168 
	C90.074837,116.271591 89.928299,122.396011 89.834015,129.025055 
	C89.610886,129.466827 89.448090,129.401871 89.095078,129.155441 
z"/>
<path fill="#20C8CB" opacity="1.000000" stroke="none" 
	d="
M88.219116,58.536007 
	C83.096527,57.975452 77.709694,57.132046 72.146225,55.976456 
	C77.298012,56.527229 82.626434,57.390190 88.219116,58.536007 
z"/>
<path fill="#07CCD2" opacity="1.000000" stroke="none" 
	d="
M47.176422,80.606064 
	C47.161312,84.956978 47.085415,88.952705 47.109985,93.694382 
	C47.039230,94.929901 46.868004,95.419487 46.696785,95.909073 
	C46.044209,95.539970 45.391632,95.170868 44.739056,94.801758 
	C44.739056,94.801758 44.797733,94.791756 45.056881,94.760818 
	C45.519112,94.445778 45.722195,94.161667 45.925278,93.877556 
	C45.937466,89.228516 45.949657,84.579468 45.884502,79.469635 
	C46.243317,79.422852 46.679474,79.836861 47.176422,80.606064 
z"/>
<path fill="#229BB0" opacity="1.000000" stroke="none" 
	d="
M165.189789,64.798203 
	C159.675552,65.363190 154.158340,65.674179 148.150360,65.887466 
	C153.191696,65.367706 158.723816,64.945641 164.612335,64.304474 
	C165.041443,64.238319 165.114136,64.391258 165.189789,64.798203 
z"/>
<path fill="#20C8CB" opacity="1.000000" stroke="none" 
	d="
M66.656036,55.518166 
	C64.783089,56.061218 62.533375,56.468315 59.828651,56.812561 
	C61.675518,56.293873 63.977398,55.838039 66.656036,55.518166 
z"/>
<path fill="#14C7C9" opacity="1.000000" stroke="none" 
	d="
M166.456665,83.003166 
	C168.813553,82.748947 171.613983,82.570282 174.699615,82.660172 
	C172.289948,82.978714 169.595062,83.028717 166.456665,83.003166 
z"/>
<path fill="#14C7C9" opacity="1.000000" stroke="none" 
	d="
M174.558563,79.898651 
	C172.179749,80.170250 169.357147,80.355461 166.262665,80.249512 
	C168.698792,79.909660 171.406769,79.860970 174.558563,79.898651 
z"/>
<path fill="#20C8CB" opacity="1.000000" stroke="none" 
	d="
M94.954849,61.664879 
	C93.248802,61.111889 91.312836,60.300873 89.180771,59.204292 
	C90.898087,59.748104 92.811508,60.577477 94.954849,61.664879 
z"/>
<path fill="#18C1CC" opacity="1.000000" stroke="none" 
	d="
M120.462830,95.913818 
	C122.154831,95.662170 124.273788,95.490196 126.671356,95.555084 
	C124.929901,95.859123 122.909836,95.926300 120.462830,95.913818 
z"/>
<path fill="#060C47" opacity="1.000000" stroke="none" 
	d="
M103.626892,153.944519 
	C103.395767,155.049667 102.888588,156.365005 102.020828,157.791443 
	C102.223770,156.653244 102.787300,155.403992 103.626892,153.944519 
z"/>
<path fill="#14C7C9" opacity="1.000000" stroke="none" 
	d="
M180.682129,86.501740 
	C182.023468,86.162277 183.644318,86.129234 185.746185,86.179985 
	C184.472015,86.445244 182.716827,86.626701 180.682129,86.501740 
z"/>
<path fill="#18C1CC" opacity="1.000000" stroke="none" 
	d="
M130.396057,95.885162 
	C130.882797,95.657730 131.729401,95.519806 132.767883,95.594002 
	C132.225143,95.862305 131.490540,95.918480 130.396057,95.885162 
z"/>
<path fill="#08C2CA" opacity="1.000000" stroke="none" 
	d="
M188.246735,78.541901 
	C187.540131,78.832596 186.783310,78.905807 186.026505,78.979019 
	C185.985092,78.796913 185.943680,78.614807 185.902283,78.432701 
	C186.359222,78.293861 186.816162,78.155022 187.575623,78.013855 
	C187.878128,78.011520 188.196533,78.324409 188.246735,78.541901 
z"/>
<path fill="#14C7C9" opacity="1.000000" stroke="none" 
	d="
M186.534241,86.235367 
	C186.702209,85.643250 187.175369,84.967155 187.979691,84.251350 
	C187.820389,84.858223 187.329910,85.504814 186.534241,86.235367 
z"/>
<path fill="#20C8CB" opacity="1.000000" stroke="none" 
	d="
M57.662178,56.877380 
	C57.417606,57.228691 56.821255,57.554722 55.862358,57.842018 
	C56.103336,57.486229 56.706867,57.169163 57.662178,56.877380 
z"/>
<path fill="#26AEC2" opacity="1.000000" stroke="none" 
	d="
M164.074036,69.225052 
	C164.217941,68.989311 164.415329,68.995056 164.907593,69.033264 
	C165.202469,69.065720 165.126053,69.552498 165.024033,69.776360 
	C164.566528,69.957260 164.301697,69.779366 164.074036,69.225052 
z"/>
<path fill="#08C2CA" opacity="1.000000" stroke="none" 
	d="
M188.943832,79.710159 
	C188.701630,79.745018 188.465683,79.505501 188.197647,79.006989 
	C188.427078,78.977264 188.688583,79.206528 188.943832,79.710159 
z"/>
<path fill="#20C8CB" opacity="1.000000" stroke="none" 
	d="
M54.683296,57.926003 
	C54.691360,58.187672 54.372482,58.466114 53.725937,58.765137 
	C53.717628,58.504734 54.036991,58.223759 54.683296,57.926003 
z"/>
<path fill="#24B7CA" opacity="1.000000" stroke="none" 
	d="
M44.389561,94.877792 
	C45.391632,95.170868 46.044209,95.539970 46.696785,95.909073 
	C46.868004,95.419487 47.039230,94.929901 47.139309,94.148155 
	C50.897583,94.123848 51.895374,96.889061 52.125252,99.983009 
	C52.468575,104.603783 48.795700,105.526283 45.408131,106.608414 
	C39.583698,101.297798 39.320923,99.164726 44.389561,94.877792 
z"/>
<path fill="#23B0C6" opacity="1.000000" stroke="none" 
	d="
M73.449120,121.682709 
	C73.122353,112.318321 73.045189,102.623352 72.883240,92.465797 
	C72.798454,92.003212 72.892006,91.599655 72.886917,91.393204 
	C73.065033,91.145851 73.248245,91.104942 73.711578,91.036362 
	C73.894043,101.123177 73.796387,111.237656 73.449120,121.682709 
z"/>
<path fill="#24B7CA" opacity="1.000000" stroke="none" 
	d="
M45.675926,93.965790 
	C45.722195,94.161667 45.519112,94.445778 45.051289,94.790054 
	C44.999889,94.584824 45.213226,94.319420 45.675926,93.965790 
z"/>
<path fill="#2CC8DA" opacity="1.000000" stroke="none" 
	d="
M75.900070,122.517487 
	C75.550194,117.763504 75.185730,112.549583 75.029091,107.329422 
	C74.895264,102.869568 74.999992,98.402565 75.004822,93.470291 
	C75.183731,93.002678 75.357010,93.003510 75.790268,93.005295 
	C76.025383,102.689110 76.000504,112.371979 75.900070,122.517487 
z"/>
<path fill="#26AEC2" opacity="1.000000" stroke="none" 
	d="
M148.422318,69.863510 
	C148.972778,69.200325 149.978836,68.108368 151.005814,68.088341 
	C155.139053,68.007736 159.278763,68.258469 163.713120,68.679184 
	C158.969284,69.290199 153.928391,69.608833 148.422318,69.863510 
z"/>
<path fill="#28C9D9" opacity="1.000000" stroke="none" 
	d="
M164.523087,79.964737 
	C163.283722,80.301102 161.574341,80.958656 159.867447,80.952301 
	C151.763367,80.922157 143.659988,80.711075 135.277237,80.248276 
	C144.683487,79.948090 154.368851,79.964050 164.523087,79.964737 
z"/>
<path fill="#000036" opacity="1.000000" stroke="none" 
	d="
M163.880371,83.575371 
	C154.749893,83.956314 145.368561,83.978432 135.522339,83.999336 
	C135.057419,83.998123 134.869507,83.627365 134.860245,83.420319 
	C144.443832,83.214363 154.036682,83.215454 163.880371,83.575371 
z"/>
<path fill="#18C1CC" opacity="1.000000" stroke="none" 
	d="
M151.617554,90.837280 
	C151.106552,91.368820 150.278473,91.988861 149.244049,92.401276 
	C149.791962,91.771027 150.546219,91.348412 151.617554,90.837280 
z"/>
<path fill="#18C1CC" opacity="1.000000" stroke="none" 
	d="
M136.097015,96.842789 
	C136.097015,96.842789 136.020737,96.436127 135.990234,96.231293 
	C139.437958,95.683441 142.962769,95.580009 146.378479,94.915665 
	C148.774261,94.449692 151.021255,93.218803 153.658295,92.160378 
	C153.981903,91.991241 154.175766,92.175316 154.104218,92.576416 
	C152.072906,96.288704 149.195084,97.390991 145.401871,97.007469 
	C142.326141,96.696495 139.200516,96.879097 136.097015,96.842789 
z"/>
<path fill="#CCF9F9" opacity="1.000000" stroke="none" 
	d="
M110.465614,91.615593 
	C111.869270,92.611069 112.945160,93.792305 114.021049,94.973541 
	C112.868294,95.516510 111.715538,96.059479 110.562775,96.602432 
	C110.421135,95.002075 110.279495,93.401711 110.465614,91.615593 
z"/>
<path fill="#120B49" opacity="1.000000" stroke="none" 
	d="
M136.067932,97.320892 
	C139.200516,96.879097 142.326141,96.696495 145.401871,97.007469 
	C149.195084,97.390991 152.072906,96.288704 154.200027,92.669609 
	C156.985504,91.930161 159.603607,91.498619 162.637543,91.124641 
	C163.370270,92.615173 163.961334,94.047684 163.963715,95.481178 
	C164.013138,125.255348 163.997971,155.029633 163.979950,184.803894 
	C163.979462,185.610214 163.805801,186.416443 163.669281,187.601257 
	C154.662888,187.601257 145.776901,187.601257 135.976395,187.601257 
	C135.976395,178.749130 135.976395,169.849487 135.953339,160.483337 
	C135.966476,139.277557 136.002655,118.538277 136.067932,97.320892 
z"/>
<path fill="#08CBD0" opacity="1.000000" stroke="none" 
	d="
M93.227493,77.897682 
	C92.539619,78.198479 91.824554,78.550827 91.109497,78.903168 
	C91.030296,78.674454 90.951103,78.445732 90.871902,78.217010 
	C91.439972,78.123329 92.008034,78.029640 92.896606,77.888275 
	C93.217102,77.840591 93.200310,77.949234 93.227493,77.897682 
z"/>
<path fill="#08CBD0" opacity="1.000000" stroke="none" 
	d="
M86.525948,82.551895 
	C86.469475,82.586746 86.582420,82.517044 86.525948,82.551895 
z"/>
<path fill="#08CBD0" opacity="1.000000" stroke="none" 
	d="
M94.556229,82.465179 
	C94.590202,82.522636 94.522247,82.407722 94.556229,82.465179 
z"/>
<path fill="#08C2CA" opacity="1.000000" stroke="none" 
	d="
M180.996307,77.994171 
	C181.608582,77.658821 182.225708,77.330505 182.842850,77.002190 
	C182.930908,77.233322 183.018967,77.464455 183.107025,77.695587 
	C182.605713,77.797554 182.104401,77.899521 181.308746,78.007919 
	C181.014404,78.014343 181.001144,78.001213 180.996307,77.994171 
z"/>
</svg>